
<?xml version="1.0" encoding="utf-8"?>
<!-- Privex Hexagon standalone logo. (C) 2020 Privex Inc. https://www.privex.io/ -->
<!-- Generator: Adobe Illustrator 22.1.0, SVG Export Plug-In . SVG Version: 6.00 Build 0)  -->
<svg version="1.1" baseProfile="tiny" id="Layer_1" xmlns="http://www.w3.org/2000/svg" xmlns:xlink="http://www.w3.org/1999/xlink"
	 x="0px" y="0px" viewBox="0 0 1015 1082.5042725" xml:space="preserve">
<g>
	<g>
		<polygon fill="#EA5857" points="514.7001953,802.4057617 739.7001953,672.5019531 739.7001953,412.355957
			514.4003906,282.2792969 740,152.0292969 965.2998047,282.105957 965.2998047,803.0942383 514.7001953,1063.2475586 		"/>
	</g>
	<g>
		<polygon fill="#EA5857" points="964.9995117,282.2796326 965,282.2791138 740,152.3756561 515.0004883,282.2791138
			740,412.1825867 740,672.6751709 515,802.5789185 515,1062.7285156 739.9997559,932.8248901 965,802.9212646
			964.9995117,542.0865479 965,542.0860596 		"/>
	</g>
	<polygon fill="#4195F9" points="288.9994812,152.9785004 64,282.8822632 64,542.6897583 64,802.4973145 64,802.4978027
		289,932.4015503 288.9994812,672.5940552 289,672.5940552 288.9994812,412.7865295 289,412.7860107 	"/>
	<g>
		<polygon fill="#D75150" points="739,672.5744019 739,412.3106384 513.6048584,542.4425049 		"/>
	</g>
	<polygon fill="#F4F5F6" points="514,802.7652588 514,542.5014648 288.6048584,672.6333618 	"/>
	<g>
		<polygon fill="#EA5857" points="513,802.4943848 513,1062.3087158 288,932.4015503 288,672.5872192 		"/>
	</g>
	<polygon fill="#D35657" points="737,412.5649109 737,672.7142334 737,672.7147827 512,802.6182861 511.9994812,802.960083
		511.9994812,1062.7681885 736.9995117,932.8641357 737,932.864624 737,932.8641357 962,802.960083 962.0004883,802.2770386
		962.0004883,802.2765503 962.0004883,542.4689331 962.0004883,282.6608582 	"/>
	<polygon fill="#4092F4" points="287,412.3695679 287,672.6333618 512.3951416,542.5014648 	"/>
	<polygon fill="#E6E7E8" points="739.4573975,412.3695679 514.0836792,542.4090576 514,542.4927979 514,542.4090576
		288.6257629,412.3695679 514,282.3295288 514,282.2463379 514.0836792,282.3295288 	"/>
	<polygon fill="#E8E9EA" points="513,542.4425049 513,802.7062988 738.3951416,672.5744019 	"/>
	<path fill="#4471A5" d="M288.091217,152.0755005"/>
	<polyline fill="#3E8FEE" points="289.1403503,152.2130585 63.5487022,282.458252 289,412.3635254 289,412.3956909
		289.3110962,412.379364 290,412.3956909 290,412.3635254 514.6781616,282.4760742 514.734314,282.4760742 514,282.2316284
		514,282.2637939 514.7062378,282.2479858 515,282.2637939 515,282.2316284 740.3395386,152.131897 514.9443359,22 	"/>
</g>
</svg>
