<svg xmlns="http://www.w3.org/2000/svg" width="38" height="33" style=""><rect id="backgroundrect" width="100%" height="100%" x="0" y="0" fill="none" stroke="none" class="" style=""/>

<g class="currentLayer" style=""><title>Layer 1</title><g fill="#E31337" stroke="#000" stroke-width="1px" id="svg_1" class="">
    <path d="M27.264328412423446,18.594967442388207 C27.39024929939052,18.594967442388207 27.468888940388943,18.731489810316816 27.405807060246914,18.840581188637763 L19.301301990030645,32.85619096177898 C19.272077101005284,32.90673149485163 19.218160784847896,32.9378516972065 19.159823342207176,32.9378516972065 L14.205641449815996,32.9378516972065 C14.079720614856052,32.9378516972065 14.001080887179073,32.80132915592077 14.064162853999663,32.69223777759983 L22.168667837537374,18.676628004458607 C22.19789289991985,18.626087471385954 22.251809042720122,18.594967442388207 22.310146485360843,18.594967442388207 L27.264328412423446,18.594967442388207 zM22.445884065633486,14.577623430644323 C22.38754662299277,14.577623430644323 22.33363030683538,14.546503245625171 22.304405417810017,14.49596271255252 L14.064162853999663,0.245613891869532 C14.001080887179073,0.1365224565140942 14.079720614856052,-4.440892098500626e-16 14.205641449815996,-4.440892098500626e-16 L19.159823342207176,-4.440892098500626e-16 C19.218160784847896,-4.440892098500626e-16 19.272077101005284,0.031120180338509346 19.301301990030645,0.08166071774508767 L27.541544640519557,14.332009528373362 C27.60462652066159,14.441100976037157 27.525986879663165,14.577623430644323 27.40006599269609,14.577623430644323 L22.445884065633486,14.577623430644323 z" id="svg_2"/>
    <path d="M23.425470510463118,0.24553469367191172 C23.36227213434034,0.13644318325284338 23.441163836582806,-4.440892098500626e-16 23.5674390654913,-4.440892098500626e-16 L28.528678360672814,-4.440892098500626e-16 C28.587231632920712,-4.440892098500626e-16 28.641342109045993,0.031154732491653955 28.670646915700996,0.08173991455585107 L38.116549810142516,16.38702846337915 C38.145903503503725,16.437698026151892 38.145903503503725,16.500153671054605 38.116549810142516,16.55082323382735 L28.670646915700996,32.85611173757779 C28.641342109045993,32.90669699678591 28.587231632920712,32.9378516972065 28.528678360672814,32.9378516972065 L23.5674390654913,32.9378516972065 C23.441163836582806,32.9378516972065 23.36227213434034,32.80140855347908 23.425470510463118,32.692317001801015 L32.82392920324864,16.46892584860325 L23.425470510463118,0.24553469367191172 zM19.393497810644952,16.386422129536534 C19.423355106422896,16.43715850414109 19.423505407040906,16.499880338892652 19.39389150465129,16.550756942066883 L9.903064275558592,32.856045515160176 C9.839749074076561,32.96482121017617 9.68162061959154,32.965194101328805 9.617784982716984,32.85671814076325 L0.022498913214435548,16.551429567669963 C-0.007358275844871673,16.500693193065405 -0.007508529951165716,16.437971358313845 0.022105238797450733,16.387094755139614 L9.51293251521664,0.08180622659910196 C9.57624771669867,-0.02696958751323224 9.734376171183694,-0.027342426485376086 9.798211808058248,0.08113358851430995 L19.393497810644952,16.386422129536534 z" id="svg_3"/>
  </g></g></svg>
